<?xml version="1.0" encoding="utf-8"?>
<!-- Generator: Adobe Illustrator 14.0.0, SVG Export Plug-In  -->
<!DOCTYPE svg PUBLIC "-//W3C//DTD SVG 1.1 Basic//EN" "http://www.w3.org/Graphics/SVG/1.1/DTD/svg11-basic.dtd" [
	<!ENTITY ns_flows "http://ns.adobe.com/Flows/1.0/">
]>
<svg xmlns="http://www.w3.org/2000/svg" xmlns:xlink="http://www.w3.org/1999/xlink" xmlns:a="http://ns.adobe.com/AdobeSVGViewerExtensions/3.0/" version="1.1" width="324" height="324" id="svg3039">
  <defs id="defs3043"/>
  <path d="m 89.636937,320.49408 c -0.828255,-0.82826 -1.776596,-2.35875 -2.107424,-3.40109 -0.380822,-1.19987 4.152467,-13.39475 12.356177,-33.23906 7.12673,-17.23913 12.84553,-31.45605 12.70844,-31.59314 -0.1371,-0.13709 -3.58936,0.17888 -7.6717,0.70215 -24.967669,3.20034 -57.221577,-8.9415 -75.969538,-28.59841 C 20.905796,215.92729 19.141737,213.42942 14.154298,203.41008 9.272175,193.60231 6.427683,184.16288 4.499634,171.37116 2.785689,159.99992 2.54208,136.50105 4.039644,127 6.440035,111.77111 14.944415,90.38686 24.63654,75.209134 44.70073,43.788904 76.373212,19.144295 109.69545,9.02412 c 7.75647,-2.3556901 25.58383,-6.0781695 26.19277,-5.4692358 0.22279,0.2227943 -4.40361,15.5034328 -10.28089,33.9569738 -5.87728,18.453541 -10.44871,33.935775 -10.15874,34.404964 0.28998,0.46919 8.18267,1.181386 17.53932,1.58266 C 145.68268,74.043915 150,74.551088 150,75.497961 c 0,0.697891 -1.80781,9.735406 -4.01737,20.083368 -2.20955,10.347961 -3.89486,19.181991 -3.74513,19.631171 0.14973,0.44919 9.84216,-11.4291 21.53873,-26.396189 C 178.23764,70.31131 184.63591,61.388873 183.77137,60.932943 183.07212,60.564181 176.2,59.455837 168.5,58.469957 c -7.7,-0.985881 -14.41404,-2.156473 -14.92008,-2.601316 -0.77411,-0.680487 21.16062,-48.608022 23.41996,-51.1727653 2.14096,-2.4303663 50.88184,8.3694873 67.33283,14.9194023 34.80859,13.858935 58.18875,34.200868 69.04353,60.071386 7.81361,18.622406 10.50246,38.783766 7.24358,54.313336 -4.71869,22.48602 -21.11329,41.29127 -43.47538,49.86798 -12.64557,4.85005 -24.46783,6.33422 -52.64444,6.60898 -15.36763,0.14986 -26.39184,0.68635 -28.6124,1.39242 -7.48741,2.38078 -11.51526,6.4569 -16.49435,16.692 -5.0077,10.29394 -7.2072,12.22025 -11.91118,10.4318 -4.20113,-1.59726 -4.94477,-5.45609 -2.40046,-12.45631 4.62113,-12.71426 13.50909,-22.74344 23.4524,-26.46371 7.72525,-2.89039 19.8116,-4.11411 33.75726,-3.41787 14.4535,0.7216 33.62963,-0.92945 43.92212,-3.78164 20.18675,-5.59404 35.31642,-20.45313 40.29752,-39.57684 3.52651,-13.53921 0.6005,-35.16892 -6.87052,-50.7883 -14.83903,-31.023406 -51.48594,-52.48722 -105.97156,-62.066736 -4.4175,-0.776672 -8.16324,-1.2807 -8.32387,-1.120063 -0.16064,0.160636 -2.97455,5.891466 -6.25314,12.735178 -5.14386,10.737288 -5.73012,12.525549 -4.27644,13.044451 0.92654,0.330736 9.33462,1.622701 18.68462,2.871031 9.35,1.248331 17.1466,2.399325 17.32577,2.557765 C 211.13152,50.800503 119.3345,168.76167 116.2983,172 c -1.25011,1.33333 -1.34909,1.33333 -0.89077,0 C 116.22992,169.60754 133,90.080411 133,88.572957 c 0,-1.06292 -3.46202,-1.514349 -15.75,-2.053716 -8.6625,-0.38023 -16.95997,-0.990108 -18.43882,-1.355284 L 96.12237,84.5 l 3.85936,-12 c 11.92187,-37.068863 15.89084,-49.960762 15.50115,-50.35045 -0.23924,-0.239246 -3.25826,0.585833 -6.70893,1.83351 C 69.043189,38.348712 34.960566,73.103504 22.091333,112.3752 17.845402,125.33207 17,131.33924 17,148.55267 c 0,28.7275 5.566499,47.20962 19.12603,63.50305 14.881445,17.88187 47.781446,30.76891 68.87397,26.97818 7.92443,-1.42418 14.28877,-4.23568 26.03259,-11.50011 4.93207,-3.05085 8.96741,-5.30367 8.96741,-5.00626 0,1.5422 -39.55551,96.2346 -40.82124,97.72247 -1.83807,2.16064 -7.48092,2.30498 -9.541823,0.24408 z" id="path3049" style="fill:#000000"/>
</svg>